<svg width="145" height="50" viewBox="0 0 145 50" fill="none" xmlns="http://www.w3.org/2000/svg">
<path d="M35.5349 1.39929C37.4864 1.39929 39.0728 2.95759 39.0728 4.87268V33.9233C39.0728 35.8392 37.4864 37.3967 35.5349 37.3967H5.94416C3.99264 37.3967 2.40619 35.8392 2.40619 33.9233V4.87268C2.40619 2.95759 3.99264 1.39929 5.94416 1.39929H35.5349ZM35.5349 0.961853H5.94416C3.74455 0.961853 1.96146 2.71321 1.96146 4.87268V33.9233C1.96146 36.0836 3.74455 37.8341 5.94416 37.8341H35.5349C37.7345 37.8341 39.5184 36.0844 39.5184 33.9233V4.87268C39.5184 2.71321 37.7345 0.961853 35.5349 0.961853Z" fill="white"/>
<path d="M12.1004 31.1952L10.9603 30.6095L9.32991 31.1936L10.2277 30.2006L9.18719 29.5661L10.8533 29.5376L11.8166 28.5617L11.9643 29.5392L13.6047 29.5693L12.0357 30.2006L12.1004 31.1952Z" fill="white"/>
<path d="M18.4719 32.2501L17.2829 31.6661L15.6741 32.2501L16.5162 31.2588L15.426 30.6258L17.1062 30.5973L18.0156 29.6231L18.228 30.5973L19.8866 30.6275L18.3425 31.2588L18.4719 32.2501Z" fill="white"/>
<path d="M25.548 31.1651L24.3374 30.581L22.7775 31.1651L23.5558 30.1737L22.4398 29.5408L24.1017 29.5115L24.9481 28.5397L25.2128 29.5115L26.8565 29.5441L25.3629 30.1737L25.548 31.1651Z" fill="white"/>
<path d="M31.1894 28.244L29.9896 27.6599L28.4928 28.2424L29.2138 27.251L28.1053 26.6197L29.7224 26.5912L30.5107 25.6202L30.8028 26.5928L32.405 26.6246L30.9737 27.2526L31.1894 28.244Z" fill="white"/>
<path d="M33.8237 24.3169L32.6637 23.7328L31.225 24.3136L31.9136 23.3231L30.8416 22.691L32.399 22.6649L33.1516 21.6931L33.4395 22.6657L34.9828 22.6983L33.6096 23.3263L33.8237 24.3169Z" fill="white"/>
<path d="M32.9631 20.3539L31.8621 19.769L30.4631 20.3482L31.151 19.3593L30.1387 18.7247L31.6364 18.6995L32.3865 17.7285L32.6379 18.7019L34.1206 18.7353L32.7831 19.3634L32.9631 20.3539Z" fill="white"/>
<path d="M3.95235 6.54501C3.95235 6.54501 11.1992 7.46387 18.6029 8.65642C22.969 9.35941 24.0949 10.9527 25.0333 13.3916C25.2308 13.9064 26.1253 13.8486 27.0064 13.0161C28.0975 11.9832 29.0683 10.9348 29.918 10.3907C32.3665 8.82911 34.4956 9.30728 36.8363 9.16554C37.286 9.13866 37.5258 9.10282 37.5258 9.15495C37.5258 9.225 37.3067 9.29017 36.8363 9.47671C35.6348 9.95324 33.9621 10.7409 33.1091 11.703C31.6596 13.346 31.0439 17.612 24.9404 21.6442C19.7023 25.1046 16.5817 25.1143 12.9193 26.5195C7.82803 28.4761 5.07913 31.2302 5.07913 31.2302C5.07913 31.2302 6.76597 26.8885 9.58623 24.4105C12.56 21.7973 14.9388 20.3303 15.362 17.9403C16.059 13.9993 3.95235 6.54501 3.95235 6.54501Z" fill="#FBBC39"/>
<path d="M43.4379 35.8571V2.94049H61.1145V7.60889H49.3945V16.4748H59.4816V21.096H49.3945V31.1887H61.2589V35.8571H43.4379Z" fill="white"/>
<path d="M85.6567 35.8571C85.0817 33.4052 84.4088 30.5753 83.6878 27.9817H72.3039C71.5837 30.6226 70.9116 33.358 70.286 35.8571H64.2821C67.26 24.4447 70.6702 13.7394 74.6097 2.94128H81.9105C85.9944 13.9757 89.5009 25.1054 92.2871 35.8571H85.6567ZM82.5834 23.3597C81.4782 19.5401 80.2287 15.5315 78.9816 11.5694C78.6439 10.6269 78.307 9.49463 78.0191 8.5041H77.9718C77.6349 9.49382 77.2989 10.6261 77.011 11.5694C75.7614 15.4362 74.5118 19.5401 73.4083 23.3597H82.5834Z" fill="white"/>
<path d="M102.373 36.4697C99.7301 36.4697 97.4732 36.0925 95.0238 35.3863L95.7424 30.4817C97.7611 31.1423 99.9707 31.6147 102.276 31.6147C106.023 31.6147 107.752 29.8218 107.752 27.0865C107.752 24.3038 105.927 23.0779 102.084 21.0504C97.4251 18.5977 95.1184 16.193 95.1184 11.6655C95.1184 5.72311 99.7309 2.32791 105.735 2.32791C108.04 2.32791 110.442 2.70506 112.266 3.36488L111.402 8.03328C109.674 7.37346 107.752 7.04355 105.878 7.04355C102.997 7.04355 101.459 8.69391 101.459 10.9104C101.459 13.6458 103.38 14.919 106.648 16.7111C111.306 19.211 114.141 21.4748 114.141 26.1904C114.14 33.0281 109.24 36.4697 102.373 36.4697Z" fill="white"/>
<path d="M137.669 35.8571C137.093 33.4052 136.419 30.5753 135.7 27.9817H124.314C123.595 30.6226 122.921 33.358 122.297 35.8571H116.293C119.271 24.4447 122.681 13.7394 126.62 2.94128H133.921C138.005 13.9757 141.51 25.1054 144.297 35.8571H137.669ZM134.595 23.3597C133.49 19.5401 132.24 15.5315 130.992 11.5694C130.656 10.6269 130.318 9.49463 130.031 8.5041H129.983C129.648 9.49382 129.31 10.6261 129.022 11.5694C127.773 15.4362 126.524 19.5401 125.419 23.3597H134.595Z" fill="white"/>
<path d="M1.95946 47.1847V41.1943H4.99212V41.8297H2.75517V43.7513H4.70338V44.3875H2.75517V46.5404H5.02697V47.1847H1.95946Z" fill="white"/>
<path d="M8.91771 47.1847L8.83059 46.5486C8.40162 47.0463 8.00915 47.2866 7.43166 47.2866C6.4086 47.2866 6.05099 46.5225 6.05099 45.6142V42.8096H6.81102V45.4603C6.81102 46.1812 6.99439 46.6618 7.58018 46.6618C8.03404 46.6618 8.32279 46.4215 8.75093 45.8977V42.8096H9.5118V47.1847H8.91771Z" fill="white"/>
<path d="M12.9211 43.4873C12.7992 43.4425 12.6241 43.4091 12.5104 43.4091C12.2399 43.4091 12.0043 43.6747 11.5322 44.3174V47.1847H10.7713V42.8096H11.3654L11.4442 43.6144C11.8724 42.9798 12.1345 42.7143 12.537 42.7143C12.7104 42.7143 12.8597 42.7314 13.034 42.7909L12.9211 43.4873Z" fill="white"/>
<path d="M15.3594 47.2866C14.1099 47.2866 13.4104 46.4288 13.4104 45.0481C13.4104 43.6323 14.1455 42.7143 15.43 42.7143C16.6712 42.7143 17.3699 43.5721 17.3699 44.9626C17.3699 46.3702 16.6447 47.2866 15.3594 47.2866ZM15.3769 43.3236C14.5986 43.3236 14.2152 44.0013 14.2152 44.9544C14.2152 45.9661 14.5737 46.6691 15.4034 46.6691C16.1908 46.6691 16.5659 45.9995 16.5659 45.0481C16.5659 44.0347 16.2074 43.3236 15.3769 43.3236Z" fill="white"/>
<path d="M19.9928 47.2434C19.6783 47.2434 19.3895 47.2002 19.1282 47.1497V48.9679H18.3673V42.8088H18.9622L19.0228 43.4678C19.4418 42.9619 19.8525 42.7135 20.4474 42.7135C21.5576 42.7135 22.0123 43.6747 22.0123 44.8404C22.0123 46.138 21.4 47.2434 19.9928 47.2434ZM20.2989 43.331C19.8965 43.331 19.5903 43.5183 19.1273 44.1121V46.4712C19.3812 46.5828 19.6609 46.6512 20.0102 46.6512C20.8142 46.6512 21.1984 45.9987 21.1984 44.9015C21.1992 44.1121 21.0158 43.331 20.2989 43.331Z" fill="white"/>
<path d="M26.3131 45.0986H23.5683C23.5683 46.0769 23.8662 46.6691 24.8104 46.6691C25.3165 46.6691 25.7007 46.5925 26.1031 46.472L26.1994 47.0463C25.7704 47.1929 25.2551 47.2866 24.6876 47.2866C23.3858 47.2866 22.7651 46.5225 22.7651 45.0228C22.7651 43.6071 23.438 42.7143 24.6702 42.7143C25.8318 42.7143 26.3214 43.5191 26.3214 44.6693C26.3214 44.7548 26.3131 44.9617 26.3131 45.0986ZM25.5522 44.5675C25.5787 43.7781 25.246 43.2804 24.6254 43.2804C23.8919 43.2804 23.5857 43.9484 23.5592 44.5675H25.5522Z" fill="white"/>
<path d="M29.7652 47.1848L29.7047 46.7123C29.3545 47.0561 28.9612 47.2866 28.4194 47.2866C27.5889 47.2866 27.0653 46.8239 27.0653 46.0093C27.0653 45.0742 27.8345 44.6457 28.9621 44.6457H29.6084V44.3019C29.6084 43.6324 29.3819 43.3057 28.6816 43.3057C28.3058 43.3057 27.8867 43.3994 27.5109 43.5631L27.3615 42.9872C27.7814 42.817 28.3058 42.7135 28.8036 42.7135C29.966 42.7135 30.3593 43.3578 30.3593 44.1553V47.1848H29.7652ZM29.6084 45.1752H28.9272C28.2012 45.1752 27.8519 45.4676 27.8519 45.9735C27.8519 46.4207 28.0967 46.7033 28.5688 46.7033C28.9886 46.7033 29.2948 46.4712 29.6093 46.1543V45.1752H29.6084Z" fill="white"/>
<path d="M34.3024 47.1847V44.5325C34.3024 43.8213 34.11 43.3407 33.5341 43.3407C33.0703 43.3407 32.7907 43.5794 32.3625 44.095V47.1847H31.6017V42.8096H32.1966L32.2746 43.4507C32.7119 42.9465 33.096 42.7143 33.6735 42.7143C34.704 42.7143 35.0625 43.4686 35.0625 44.3883V47.1856H34.3024V47.1847Z" fill="white"/>
<path d="M42.6769 44.9878C42.6769 46.5054 41.8638 47.2711 40.5702 47.2711C39.3032 47.2711 38.4992 46.5486 38.4992 45.0742V41.1951H39.285V45.0139C39.285 46.1038 39.8011 46.6268 40.6051 46.6268C41.4091 46.6268 41.9078 46.0957 41.9078 45.0212V41.1951H42.6769V44.9878Z" fill="white"/>
<path d="M46.7067 47.1847V44.5325C46.7067 43.8213 46.515 43.3407 45.9384 43.3407C45.4745 43.3407 45.1949 43.5794 44.7668 44.095V47.1847H44.0059V42.8096H44.6008L44.6797 43.4507C45.1169 42.9465 45.5019 42.7143 46.0778 42.7143C47.1099 42.7143 47.4676 43.4686 47.4676 44.3883V47.1856H46.7067V47.1847Z" fill="white"/>
<path d="M48.9006 47.1847V43.392H48.2368V42.8096H49.6615V47.1847H48.9006ZM49.2424 41.9502C48.9454 41.9502 48.7272 41.7352 48.7272 41.4346C48.7272 41.1438 48.9454 40.9287 49.2424 40.9287C49.5486 40.9287 49.7585 41.1438 49.7585 41.4346C49.7585 41.7352 49.5486 41.9502 49.2424 41.9502Z" fill="white"/>
<path d="M52.6078 47.2866C51.3574 47.2866 50.6587 46.4288 50.6587 45.0481C50.6587 43.6323 51.3931 42.7143 52.6775 42.7143C53.9179 42.7143 54.6182 43.5721 54.6182 44.9626C54.6182 46.3702 53.8922 47.2866 52.6078 47.2866ZM52.6252 43.3236C51.8469 43.3236 51.4628 44.0013 51.4628 44.9544C51.4628 45.9661 51.8212 46.6691 52.6509 46.6691C53.4375 46.6691 53.8134 45.9995 53.8134 45.0481C53.8134 44.0347 53.4549 43.3236 52.6252 43.3236Z" fill="white"/>
<path d="M58.3157 47.1847V44.5325C58.3157 43.8213 58.124 43.3407 57.5465 43.3407C57.0827 43.3407 56.803 43.5794 56.3749 44.095V47.1847H55.614V42.8096H56.209L56.2878 43.4507C56.7251 42.9465 57.11 42.7143 57.6859 42.7143C58.7181 42.7143 59.0757 43.4686 59.0757 44.3883V47.1856H58.3157V47.1847Z" fill="white"/>
<path d="M65.964 47.1847C65.8329 46.6789 65.6935 46.1201 65.545 45.5971H63.2549C63.1064 46.1209 62.9587 46.6789 62.8268 47.1847H62.0137C62.6003 45.0562 63.2549 43.0752 63.981 41.1943H64.8721C65.6587 43.1941 66.305 45.2118 66.8468 47.1847H65.964ZM65.3782 44.9797C65.1418 44.2066 64.8713 43.3839 64.5999 42.5856C64.5302 42.3885 64.4605 42.1563 64.3991 41.9584H64.39C64.3286 42.1555 64.2498 42.3958 64.1801 42.5856C63.9179 43.3668 63.6565 44.1985 63.4201 44.9797H65.3782Z" fill="white"/>
<path d="M70.6403 42.8096C70.2735 44.2669 69.8188 45.734 69.2513 47.1847H68.4299C67.8615 45.716 67.4068 44.2587 67.0484 42.8096H67.8524C68.1063 43.8392 68.3851 44.8159 68.7004 45.7788C68.7701 45.9661 68.8315 46.1893 68.8837 46.3864H68.8929C68.9451 46.1893 69.0157 45.9661 69.0762 45.769C69.3915 44.7988 69.662 43.8124 69.8802 42.8096H70.6403Z" fill="white"/>
<path d="M71.6461 47.1847V43.392H70.9823V42.8096H72.4069V47.1847H71.6461ZM71.9879 41.9502C71.6909 41.9502 71.4727 41.7352 71.4727 41.4346C71.4727 41.1438 71.6909 40.9287 71.9879 40.9287C72.2941 40.9287 72.504 41.1438 72.504 41.4346C72.504 41.7352 72.2933 41.9502 71.9879 41.9502Z" fill="white"/>
<path d="M76.0859 47.1848L76.0262 46.7123C75.6761 47.0561 75.2828 47.2866 74.7418 47.2866C73.9096 47.2866 73.386 46.8239 73.386 46.0093C73.386 45.0742 74.1552 44.6457 75.2819 44.6457H75.93V44.3019C75.93 43.6324 75.7018 43.3057 75.0023 43.3057C74.6273 43.3057 74.2074 43.3994 73.8324 43.5631L73.683 42.9872C74.1029 42.817 74.6273 42.7135 75.1251 42.7135C76.2859 42.7135 76.6817 43.3578 76.6817 44.1553V47.1848H76.0859ZM75.9308 45.1752H75.2487C74.5244 45.1752 74.1726 45.4676 74.1726 45.9735C74.1726 46.4207 74.4182 46.7033 74.8895 46.7033C75.3085 46.7033 75.6147 46.4712 75.9308 46.1543V45.1752Z" fill="white"/>
<path d="M79.7674 47.175C79.6023 47.2181 79.3392 47.2532 79.0945 47.2532C78.4655 47.2532 78.0374 46.9958 78.0374 46.1127V43.3904H77.4168V42.808H78.0291L78.2125 41.538H78.7974V42.808H79.7674V43.3904H78.7974V45.9229C78.7974 46.5575 78.9982 46.6341 79.4181 46.6341H79.7674V47.175Z" fill="white"/>
<path d="M80.8951 47.1847V43.392H80.2305V42.8096H81.6551V47.1847H80.8951ZM81.2361 41.9502C80.9391 41.9502 80.7209 41.7352 80.7209 41.4346C80.7209 41.1438 80.9391 40.9287 81.2361 40.9287C81.5423 40.9287 81.7522 41.1438 81.7522 41.4346C81.7522 41.7352 81.5423 41.9502 81.2361 41.9502Z" fill="white"/>
<path d="M84.6023 47.2866C83.3511 47.2866 82.6524 46.4288 82.6524 45.0481C82.6524 43.6323 83.3867 42.7143 84.672 42.7143C85.9116 42.7143 86.6127 43.5721 86.6127 44.9626C86.6127 46.3702 85.8859 47.2866 84.6023 47.2866ZM84.6189 43.3236C83.8406 43.3236 83.4564 44.0013 83.4564 44.9544C83.4564 45.9661 83.8149 46.6691 84.6454 46.6691C85.432 46.6691 85.807 45.9995 85.807 45.0481C85.807 44.0347 85.4486 43.3236 84.6189 43.3236Z" fill="white"/>
<path d="M90.3093 47.1847V44.5325C90.3093 43.8213 90.1184 43.3407 89.5401 43.3407C89.0779 43.3407 88.7967 43.5794 88.3702 44.095V47.1847H87.6093V42.8096H88.2042L88.2822 43.4507C88.7195 42.9465 89.1045 42.7143 89.6812 42.7143C90.7134 42.7143 91.0718 43.4686 91.0718 44.3883V47.1856H90.3093V47.1847Z" fill="white"/>
<path d="M95.4246 47.2784C95.0048 47.2784 94.6024 47.2182 94.1925 47.0984L94.3062 46.4207C94.682 46.5396 95.0662 46.6178 95.4769 46.6178C96.2021 46.6178 96.5871 46.2235 96.5871 45.6313C96.5871 45.022 96.1664 44.7646 95.4769 44.3695C94.6555 43.9223 94.2356 43.4947 94.2356 42.6956C94.2356 41.7172 94.9791 41.0998 96.0461 41.0998C96.3946 41.0998 96.8061 41.1601 97.0858 41.2619L96.9629 41.8965C96.6742 41.7946 96.3423 41.7433 96.0287 41.7433C95.3898 41.7433 95.0761 42.1286 95.0761 42.6011C95.0761 43.2006 95.496 43.467 96.1249 43.8278C96.9638 44.3003 97.4351 44.7206 97.4351 45.5271C97.4334 46.6439 96.6302 47.2784 95.4246 47.2784Z" fill="white"/>
<path d="M100.817 47.1848L100.756 46.7123C100.406 47.0561 100.013 47.2866 99.4712 47.2866C98.6415 47.2866 98.1163 46.8239 98.1163 46.0093C98.1163 45.0742 98.8854 44.6457 100.013 44.6457H100.66V44.3019C100.66 43.6324 100.432 43.3057 99.7334 43.3057C99.3584 43.3057 98.9377 43.3994 98.5627 43.5631L98.4133 42.9872C98.8332 42.817 99.3584 42.7135 99.8546 42.7135C101.018 42.7135 101.411 43.3578 101.411 44.1553V47.1848H100.817ZM100.66 45.1752H99.9782C99.253 45.1752 98.9029 45.4676 98.9029 45.9735C98.9029 46.4207 99.1476 46.7033 99.6189 46.7033C100.04 46.7033 100.344 46.4712 100.66 46.1543V45.1752Z" fill="white"/>
<path d="M104.305 41.2627C103.641 41.2627 103.597 41.7604 103.597 42.3445V42.8088H104.532V43.3912H103.597V47.1839H102.836V43.3912H102.207V42.8088H102.836V42.3608C102.836 41.3311 103.107 40.6632 104.139 40.6632C104.365 40.6632 104.532 40.6803 104.68 40.7145V41.2635H104.305V41.2627Z" fill="white"/>
<path d="M108.535 45.0986H105.792C105.792 46.0769 106.088 46.6691 107.032 46.6691C107.54 46.6691 107.923 46.5925 108.326 46.472L108.423 47.0463C107.993 47.1929 107.478 47.2866 106.91 47.2866C105.609 47.2866 104.988 46.5225 104.988 45.0228C104.988 43.6071 105.661 42.7143 106.893 42.7143C108.055 42.7143 108.546 43.5191 108.546 44.6693C108.545 44.7548 108.535 44.9617 108.535 45.0986ZM107.775 44.5675C107.801 43.7781 107.469 43.2804 106.848 43.2804C106.114 43.2804 105.809 43.9484 105.783 44.5675H107.775Z" fill="white"/>
<path d="M111.472 47.175C111.305 47.2181 111.043 47.2532 110.798 47.2532C110.169 47.2532 109.741 46.9958 109.741 46.1127V43.3904H109.121V42.808H109.733L109.916 41.538H110.501V42.808H111.472V43.3904H110.501V45.9229C110.501 46.5575 110.702 46.6341 111.122 46.6341H111.472V47.175Z" fill="white"/>
<path d="M115.555 42.8096C115.083 44.7809 114.638 46.2064 114.199 47.1848C113.553 48.66 113.124 49.0542 112.504 49.0542C112.311 49.0542 112.137 49.0208 111.998 48.9777L112.023 48.4189H112.46C112.757 48.4189 112.993 48.1704 113.422 47.1921C112.915 45.9653 112.338 44.3524 111.962 42.8088H112.774C113.028 43.8621 113.324 44.8233 113.649 45.7682C113.718 45.9653 113.779 46.1975 113.841 46.3938H113.849C113.911 46.1885 113.979 45.9661 114.04 45.7682C114.338 44.8331 114.601 43.8034 114.792 42.8088H115.555V42.8096Z" fill="white"/>
<path d="M121.996 47.1847C121.866 46.6789 121.726 46.1201 121.577 45.5971H119.288C119.138 46.1209 118.992 46.6789 118.859 47.1847H118.046C118.632 45.0562 119.288 43.0752 120.013 41.1943H120.903C121.69 43.1941 122.338 45.2118 122.879 47.1847H121.996ZM121.411 44.9797C121.175 44.2066 120.904 43.3839 120.634 42.5856C120.562 42.3885 120.493 42.1563 120.432 41.9584H120.424C120.361 42.1555 120.283 42.3958 120.214 42.5856C119.951 43.3668 119.688 44.1985 119.453 44.9797H121.411Z" fill="white"/>
<path d="M127.101 47.0895C127.101 48.4629 126.551 49.0542 125.152 49.0542C124.829 49.0542 124.392 49.029 123.991 48.9524L124.017 48.3936C124.366 48.4189 124.76 48.4368 125.108 48.4368C126 48.4368 126.332 48.1631 126.332 47.1318V46.5575C125.931 47.0202 125.537 47.2271 125.013 47.2271C123.903 47.2271 123.458 46.2643 123.458 45.1157C123.458 43.8287 124.078 42.7485 125.529 42.7485C126.035 42.7485 126.639 42.8504 127.101 42.997V47.0895ZM126.333 43.511C126.089 43.4092 125.793 43.3407 125.46 43.3407C124.654 43.3407 124.263 43.9834 124.263 45.0554C124.263 45.8366 124.445 46.608 125.171 46.608C125.573 46.608 125.888 46.4207 126.333 45.8366V43.511Z" fill="white"/>
<path d="M131.648 45.0986H128.903C128.903 46.0769 129.199 46.6691 130.144 46.6691C130.651 46.6691 131.036 46.5925 131.438 46.472L131.534 47.0463C131.105 47.1929 130.59 47.2866 130.022 47.2866C128.721 47.2866 128.1 46.5225 128.1 45.0228C128.1 43.6071 128.773 42.7143 130.005 42.7143C131.168 42.7143 131.656 43.5191 131.656 44.6693C131.656 44.7548 131.648 44.9617 131.648 45.0986ZM130.888 44.5675C130.914 43.7781 130.583 43.2804 129.961 43.2804C129.226 43.2804 128.921 43.9484 128.896 44.5675H130.888Z" fill="white"/>
<path d="M135.389 47.1847V44.5325C135.389 43.8213 135.198 43.3407 134.621 43.3407C134.156 43.3407 133.878 43.5794 133.45 44.095V47.1847H132.689V42.8096H133.283L133.362 43.4507C133.8 42.9465 134.185 42.7143 134.76 42.7143C135.793 42.7143 136.151 43.4686 136.151 44.3883V47.1856H135.389V47.1847Z" fill="white"/>
<path d="M140.101 47.0284C139.699 47.21 139.315 47.2703 138.973 47.2703C137.698 47.2703 137.129 46.4036 137.129 45.0734C137.129 43.5631 137.907 42.7314 139.052 42.7314C139.41 42.7314 139.768 42.7998 140.083 42.9619L139.908 43.5281C139.663 43.4246 139.382 43.3481 139.096 43.3481C138.284 43.3481 137.933 44.0176 137.933 44.996C137.933 46.094 138.327 46.6333 139.103 46.6333C139.428 46.6333 139.69 46.582 139.97 46.4533L140.101 47.0284Z" fill="white"/>
<path d="M144.131 42.8096C143.659 44.7809 143.214 46.2064 142.775 47.1848C142.13 48.66 141.701 49.0542 141.081 49.0542C140.889 49.0542 140.714 49.0208 140.574 48.9777L140.6 48.4189H141.036C141.334 48.4189 141.571 48.1704 141.997 47.1921C141.49 45.9653 140.914 44.3524 140.538 42.8088H141.351C141.604 43.8621 141.901 44.8233 142.225 45.7682C142.294 45.9653 142.355 46.1975 142.418 46.3938H142.426C142.486 46.1885 142.557 45.9661 142.617 45.7682C142.914 44.8331 143.177 43.8034 143.369 42.8088H144.131V42.8096Z" fill="white"/>
</svg>
