<?xml version="1.0" encoding="UTF-8"?><svg id="a" xmlns="http://www.w3.org/2000/svg" viewBox="0 0 300 57.4" width="300" height="57.4"><defs><style>.c{fill:#005596;}.d{fill:#79bde8;}</style></defs><g id="b"><g><path class="d" d="M40.3,34.14h-7.87l-6.04-16.33-5.86,16.33h-7.81L0,.06H10.53l4.38,12.01c.83,2.6,1.3,5.38,1.83,7.93L23.02,.12h6.69l6.51,19.88c.47-2.6,1.12-5.33,1.89-8.17L42.19,.06h10.53l-12.43,34.08Z"/><path class="d" d="M145.44,5.09c0,2.78-2.25,5.03-5.03,5.03s-5.03-2.25-5.03-5.03S137.63,.06,140.41,.06s5.03,2.25,5.03,5.03"/><rect class="d" x="54.08" y="10.12" width="8.99" height="24.08"/><path class="d" d="M85.38,34.14v-13.25c0-2.96-1.72-4.02-3.37-4.02-2.13,0-4.14,1.48-4.14,4.62v12.66h-8.88V10.12h7.51l.83,2.6c2.07-2.37,5.09-3.25,7.57-3.2,5.09,.06,9.41,2.72,9.41,11.3v13.37h-8.93v-.06Z"/><path class="d" d="M116.45,.06h8.99V34.14h-7.51l-.83-2.6c-2.07,2.31-5.27,3.2-7.93,3.02-7.04-.41-11.01-4.85-11.01-12.49s4.67-12.54,11.72-12.54c3.08,0,5.38,.95,6.69,2.6V.06h-.12Zm-9.47,22.07c0,3.37,2.13,5.27,4.79,5.27,3.02,0,4.79-2.49,4.79-5.03,0-2.9-1.66-5.56-4.79-5.56-2.66,0-4.79,1.95-4.79,5.33"/><g><polygon class="c" points="23.02 57.04 12.72 57.04 12.72 44.14 22.78 44.14 22.78 47.22 16.33 47.22 16.33 49.05 22.43 49.05 22.43 52.01 16.33 52.01 16.33 53.96 23.02 53.96 23.02 57.04"/><path class="c" d="M66.04,57.04h-4.02l-3.02-4.2h-1.3v4.2h-3.67v-12.9h6.27c3.31,0,5.03,2.13,5.03,4.44,0,1.6-.53,2.9-2.72,3.91l3.37,4.38v.18h.06Zm-8.34-9.94v3.08h2.72c.95,0,1.36-.71,1.36-1.48,0-.83-.47-1.6-1.42-1.6h-2.66Z"/><path class="c" d="M79.94,57.4c-4.2,0-7.16-2.43-7.16-6.75s2.96-6.75,7.16-6.75,7.16,2.49,7.16,6.75-2.9,6.75-7.16,6.75m0-10.41c-2.07,0-3.49,1.54-3.49,3.67s1.48,3.67,3.49,3.67c2.13,0,3.49-1.54,3.49-3.67,.06-2.25-1.36-3.67-3.49-3.67"/><path class="c" d="M97.99,53.55v3.49h-3.67v-12.9h6.27c3.49,0,5.21,2.19,5.21,4.67s-1.72,4.67-5.21,4.73c0,0-2.6,0-2.6,0Zm0-3.08h2.6c1.01,0,1.54-.71,1.54-1.6,0-.83-.53-1.6-1.54-1.6h-2.6v3.2Z"/><polygon class="c" points="125.38 57.04 115.09 57.04 115.09 44.14 125.15 44.14 125.15 47.22 118.64 47.22 118.64 49.05 124.79 49.05 124.79 52.01 118.64 52.01 118.64 53.96 125.38 53.96 125.38 57.04"/><path class="c" d="M41.24,44.14v6.86c0,2.01-1.01,2.96-2.54,2.96s-2.54-.89-2.54-2.96v-6.86h-3.79v6.86c0,4.08,2.37,6.21,6.27,6.21s6.33-2.19,6.27-6.15v-6.86h-3.67v-.06Z"/></g></g><g><path class="d" d="M165.74,16.51c0-3.61,3.02-5.09,6.45-5.09s6.33,1.6,6.33,4.85c0,3.79-2.72,5.09-6.45,5.09-1.07,0-2.49,.18-2.49,1.95h8.82v3.67h-12.96v-3.55c0-4.56,3.49-5.5,6.63-5.5,.89,0,2.13-.36,2.13-1.6,0-1.07-1.01-1.48-2.07-1.48-1.3,0-2.13,.47-2.19,1.66,0,0-4.2,0-4.2,0Z"/><path class="d" d="M181.95,18.4c0-5.03,3.25-6.92,6.98-6.92s6.92,2.13,6.92,6.92v2.07c0,4.91-3.2,6.98-6.86,6.98s-7.04-1.89-7.04-6.92v-2.13Zm4.26,2.13c0,2.37,1.12,3.37,2.72,3.37s2.72-1.07,2.72-3.37v-2.07c0-2.25-1.12-3.25-2.66-3.25s-2.72,.95-2.72,3.25v2.07h-.06Z"/><path class="d" d="M199.47,16.51c0-3.61,3.02-5.09,6.45-5.09s6.33,1.6,6.33,4.85c0,3.79-2.72,5.09-6.45,5.09-1.07,0-2.49,.18-2.49,1.95h8.82v3.67h-12.96v-3.55c0-4.56,3.49-5.5,6.63-5.5,.89,0,2.13-.36,2.13-1.6,0-1.07-1.01-1.48-2.07-1.48-1.3,0-2.13,.47-2.19,1.66,0,0-4.2,0-4.2,0Z"/><path class="d" d="M219.53,20.71v-3.08h2.6c.83,0,2.07-.18,2.13-1.3,0-.77-.83-1.36-2.13-1.36-1.12,0-2.25,.41-2.25,1.54h-4.2c.06-3.79,3.37-5.09,6.45-5.09s6.51,1.24,6.51,4.79c0,1.18-.77,2.43-2.07,2.96,1.78,.71,2.43,1.95,2.43,3.37,0,3.61-3.91,4.73-6.86,4.73-3.14,0-6.63-1.42-6.63-5.33h4.26c0,1.36,1.3,1.83,2.6,1.83,1.07,0,2.13-.53,2.13-1.54,0-.41-.12-1.6-2.13-1.6h-2.84v.06Z"/></g><g><path class="c" d="M165.62,51.01c.12-1.89,1.83-2.49,3.37-2.49s3.2,.59,3.2,2.54-1.6,2.49-3.25,2.49c-.83,0-2.07,.18-2.07,1.24v.83h5.33v1.24h-6.63v-2.07c0-1.89,1.72-2.43,3.31-2.43,.77,0,2.01-.24,2.01-1.3,0-1.01-.89-1.36-1.89-1.42-.95,0-2.01,.36-2.07,1.3h-1.3v.06Z"/><path class="c" d="M180.24,49.88h-4.67v1.78h1.89c1.89,0,3.25,.83,3.25,2.66s-1.42,2.72-3.25,2.72c-1.72,0-3.37-.59-3.37-2.54h1.3c0,1.07,1.18,1.3,2.01,1.3,1.01,0,1.95-.47,1.95-1.48,0-.95-.83-1.42-1.89-1.42h-3.14v-4.26h5.92v1.24Z"/><path class="c" d="M182.54,52.96h4.32v1.12h-4.32v-1.12Z"/><path class="c" d="M188.93,51.01c.12-1.89,1.83-2.49,3.37-2.49s3.2,.59,3.2,2.54-1.6,2.49-3.25,2.49c-.83,0-2.07,.18-2.07,1.24v.83h5.33v1.24h-6.63v-2.07c0-1.89,1.72-2.43,3.31-2.43,.77,0,2.01-.24,2.01-1.3,0-1.01-.89-1.36-1.89-1.42-.95,0-2.01,.36-2.07,1.3h-1.3v.06Z"/><path class="c" d="M197.87,56.92l3.67-7.04h-4.38v-1.24h6.09l.06,.77-3.91,7.51h-1.54Z"/><path class="c" d="M214.02,55.21h-4.5l-.77,1.72h-1.42l3.73-8.28h1.42l3.73,8.28h-1.42l-.77-1.72Zm-2.25-5.15l-1.78,3.96h3.49l-1.72-3.96Z"/><path class="c" d="M219.29,54.38v2.54h-1.3v-8.28h3.85c3.96,0,3.96,5.74,0,5.74h-2.54Zm0-1.24h2.49c2.19,0,2.19-3.31,0-3.31h-2.49v3.31Z"/><path class="c" d="M233.85,56.92h-1.54l-2.54-2.84h-1.78v2.84h-1.3v-8.28h3.85c1.89,0,2.9,1.3,2.9,2.72,0,1.18-.59,2.37-2.25,2.6l2.49,2.78,.18,.18Zm-5.8-7.1v3.02h2.54c1.07,0,1.6-.71,1.6-1.48s-.47-1.54-1.6-1.54h-2.54Z"/><path class="c" d="M235.86,56.92v-8.28h1.3v8.28h-1.3Z"/><path class="c" d="M241.18,48.64v7.04h4.38v1.24h-5.68v-8.28h1.3Z"/></g><g><path class="c" d="M170.95,5.8h-3.08l-.47,1.12h-2.07L168.4,.12h1.95l3.08,6.8h-2.07l-.41-1.12Zm-1.54-3.85l-.89,2.19h1.78l-.89-2.19Z"/><path class="c" d="M179.41,3.79c-.06-.83-.06-1.12-.06-1.42V0h1.95V6.8h-1.66l-2.84-3.67v3.67h-1.95V.06h1.66l2.9,3.73Z"/><path class="c" d="M188.05,3.79c-.06-.83-.06-1.12-.06-1.42V0h1.95V6.8h-1.66l-2.84-3.67v3.67h-1.95V.06h1.66l2.9,3.73Z"/><path class="c" d="M198.58,.06V3.91c0,2.01-1.24,3.14-3.2,3.14s-3.2-1.07-3.2-3.14V.12h1.89V3.91c0,1.07,.53,1.54,1.3,1.54s1.3-.47,1.3-1.48V.12h1.89V.06Z"/><path class="c" d="M205.21,5.8h-3.08l-.47,1.12h-2.07L202.66,.12h1.95l3.08,6.8h-2.07l-.41-1.12Zm-1.54-3.85l-.89,2.19h1.78l-.89-2.19Z"/><path class="c" d="M211.07,.06V5.27h3.25v1.66h-5.21V.06h1.95Z"/><path class="c" d="M224.38,6.86h-5.44V.06h5.33V1.66h-3.43v.95h3.25v1.6h-3.25v1.01h3.55v1.66Z"/><path class="c" d="M230.3,6.92h-1.89L225.56,.06h2.13l.77,2.07,.83,2.54,.89-2.54,.77-2.07h2.13l-2.78,6.86Z"/><path class="c" d="M240,6.86h-5.44V.06h5.33V1.66h-3.43v.95h3.25v1.6h-3.25v1.01h3.55v1.66Z"/><path class="c" d="M246.51,3.79c-.06-.83-.06-1.12-.06-1.42V0h1.95V6.8h-1.66l-2.84-3.67v3.67h-1.95V.06h1.66l2.9,3.73Z"/><path class="c" d="M252.13,1.66h-2.01V.06h5.92V1.66h-2.01V6.92h-1.89V1.66Z"/></g><g><path class="c" d="M175.92,42.13c-1.36,1.36-2.96,1.89-4.79,1.89-4.67,0-6.51-2.96-6.51-6.21,0-3.08,2.01-6.33,6.51-6.33,1.72,0,3.25,.59,4.62,1.89l-2.07,2.01c-.89-.83-1.72-1.01-2.54-1.01-2.31,0-3.2,1.89-3.2,3.43s.83,3.31,3.2,3.31c.83,0,1.95-.36,2.84-1.24l1.95,2.25Z"/><path class="c" d="M183.96,43.96c-3.91,0-6.63-2.25-6.63-6.27s2.72-6.27,6.63-6.27,6.63,2.31,6.63,6.27-2.72,6.27-6.63,6.27Zm0-9.64c-1.95,0-3.25,1.42-3.25,3.37s1.36,3.37,3.25,3.37,3.25-1.42,3.25-3.37c0-2.07-1.24-3.37-3.25-3.37Z"/><path class="c" d="M196.8,40.47v3.25h-3.37v-12.01h5.8c3.2,0,4.79,2.01,4.79,4.38s-1.6,4.32-4.79,4.38c0,0-2.43,0-2.43,0Zm0-2.9h2.43c.95,0,1.42-.65,1.42-1.48s-.47-1.48-1.42-1.48h-2.43v2.96Z"/><path class="c" d="M216.09,43.67h-9.59v-11.95h9.35v2.84h-5.98v1.72h5.62v2.72h-5.62v1.83h6.21v2.84h0Z"/><path class="c" d="M226.92,38.28c-.06-1.42-.12-1.95-.12-2.43v-4.08h3.37v11.95h-2.84l-4.97-6.45,.06,2.6v3.85h-3.43v-12.01h2.84l5.09,6.57Z"/><path class="c" d="M241.36,43.73v-4.56h-4.32v4.5h-3.37v-11.89h3.37v4.56h4.32v-4.56h3.37v11.95h-3.37Z"/><path class="c" d="M256.39,41.72h-5.33l-.77,1.95h-3.55l5.33-11.95h3.43l5.33,11.95h-3.61l-.83-1.95Zm-2.66-6.63l-1.54,3.79h3.08l-1.54-3.79Z"/><path class="c" d="M271.01,35.27c-.89-.83-1.89-1.07-2.72-1.07-1.95,0-3.2,1.18-3.2,3.49,0,1.54,.77,3.43,3.2,3.43,.65,0,1.6-.12,2.31-.65v-1.54h-3.02v-2.66h5.86v5.33c-.77,1.54-2.84,2.37-5.15,2.37-4.73,0-6.51-3.14-6.51-6.27s2.07-6.33,6.51-6.33c1.66,0,3.14,.36,4.73,1.95l-2.01,1.95Z"/><path class="c" d="M285.92,43.67h-9.59v-11.95h9.35v2.84h-5.98v1.72h5.62v2.72h-5.62v1.83h6.21v2.84Z"/><path class="c" d="M296.75,38.28c-.06-1.42-.12-1.95-.12-2.43v-4.08h3.37v11.95h-2.84l-4.97-6.45,.06,2.6v3.85h-3.43v-12.01h2.84l5.09,6.57Z"/></g></g></svg>