
        <svg xmlns="http://www.w3.org/2000/svg" xmlns:xlink="http://www.w3.org/1999/xlink" version="1.1" width="3164.8351648351645" height="936.2637362637363" viewBox="0 0 3164.8351648351645 936.2637362637363">
			
			<g transform="scale(8.241758241758241) translate(10, 10)">
				<defs id="SvgjsDefs3000"><linearGradient id="SvgjsLinearGradient3005"><stop id="SvgjsStop3006" stop-color="#00ddff" offset="0"/><stop id="SvgjsStop3007" stop-color="#ff00d4" offset="1"/></linearGradient></defs><g id="SvgjsG3001" featureKey="symbolFeature-0" transform="matrix(1.04,0,0,1.04,-5.2,-5.2)" fill="#fff"><g xmlns="http://www.w3.org/2000/svg"><path stroke="url(#SvgjsLinearGradient3005)" stroke-width="1.2023" stroke-miterlimit="10" d="M50,5C25.1,5,5,25.2,5,50c0,24.9,20.1,45,45,45   s45-20.1,45-45C95,25.2,74.9,5,50,5z M44,80.1l4.8-27.7H38l18-32.5l-6,27.7h12L44,80.1z"/></g></g><g id="SvgjsG3002" featureKey="nameFeature-0" transform="matrix(0.6259528837501118,0,0,0.6259528837501118,110.38124212639984,35.21755904455116)" fill="#fff"><path d="M7.2656 12.5 c0.9375 -2.2916 2.2916 -4.2447 4.0624 -5.8593 c1.6146 -1.6146 3.698 -2.9167 6.2501 -3.9063 s5.2344 -1.4844 8.0469 -1.4844 l8.6719 0 l0 5.9375 l-8.5938 0 c-2.0313 0 -3.8281 0.33852 -5.3906 1.0156 c-1.6666 0.67711 -3.0208 1.5625 -4.0624 2.6563 c-1.0938 1.0416 -1.9791 2.3958 -2.6563 4.0624 c-0.625 1.5104 -0.9375 3.2031 -0.9375 5.0781 s0.3125 3.5677 0.9375 5.0781 c0.625 1.5625 1.5104 2.9166 2.6563 4.0625 c1.0416 1.0416 2.3958 1.901 4.0624 2.5781 c1.6666 0.625 3.4635 0.9375 5.3906 0.9375 l8.5938 0 l0 5.9375 l-8.6719 0 c-2.9166 0 -5.5729 -0.46875 -7.9688 -1.4063 c-2.5 -1.0416 -4.6094 -2.3698 -6.3281 -3.9844 c-1.7709 -1.6666 -3.125 -3.6458 -4.0625 -5.9374 c-0.98961 -2.3959 -1.4844 -4.8438 -1.4844 -7.3438 c0 -2.6563 0.49477 -5.1302 1.4844 -7.4219 z M52.094 16.875 l0 -15.547 l-6.5625 0 l0 37.344 l6.5625 0 l0 -21.797 z M69.98400000000001 1.328000000000003 l0 15.547 l-11.406 0 l0 6.0938 l11.406 0 l0 15.703 l6.4844 0 l0 -37.344 l-6.4844 0 z M112.703 38.5937 l7.0313 0 l-13.594 -37.266 l-7.1094 0 l7.8906 22.266 z M83.9531 38.5937 l6.875 0 l8.125 -19.844 l-3.3594 -8.9063 z M158.781 38.5937 l-10.078 -14.063 c1.3541 -0.41664 2.552 -0.91141 3.5937 -1.4843 c1.1459 -0.72914 2.0834 -1.5364 2.8125 -2.4218 c0.83336 -0.98961 1.4323 -2.0573 1.797 -3.2032 c0.46875 -1.25 0.70313 -2.6563 0.70313 -4.2188 c0 -1.8229 -0.3125 -3.4635 -0.9375 -4.9219 c-0.625 -1.4063 -1.5365 -2.6302 -2.7344 -3.6719 c-1.1459 -0.98961 -2.6042 -1.7709 -4.3751 -2.3438 c-1.8229 -0.57289 -3.75 -0.85938 -5.7813 -0.85938 l-16.563 0 l0 5.9375 l16.016 0 c2.4479 0 4.3489 0.52086 5.703 1.5625 s2.0313 2.6041 2.0313 4.6875 c0 1.9271 -0.67711 3.4375 -2.0313 4.5313 c-1.3541 1.1459 -3.2291 1.7188 -5.625 1.7188 l-16.094 0 l0 18.75 l6.4844 0 l0 -12.969 l8.2031 0 l9.1406 12.969 l7.7344 0 l0 0 z M185.875 22.891 l13.828 0 l0 -5.7813 l-13.828 0 l0 5.7813 z M199.703 27.422 l-5.7813 0.000076294 l0 5.3125 l-5.7031 0 c-1.9791 0 -3.75 -0.3125 -5.3125 -0.9375 c-1.5625 -0.57289 -2.9427 -1.4323 -4.1406 -2.5781 c-1.0938 -1.1979 -1.9531 -2.552 -2.5781 -4.0624 c-0.625 -1.4584 -0.9375 -3.1511 -0.9375 -5.0782 c0 -1.8229 0.3125 -3.5156 0.9375 -5.0781 c0.67711 -1.6666 1.5365 -3.0208 2.5781 -4.0624 c1.1459 -1.1459 2.5261 -2.0573 4.1407 -2.7345 c1.5625 -0.625 3.3334 -0.9375 5.3125 -0.9375 l11.406 0.078125 l0 -5.9375 l-11.406 -0.078125 c-2.9166 0 -5.5989 0.46875 -8.0469 1.4063 c-2.3959 0.9375 -4.4792 2.2396 -6.2501 3.9063 c-1.7188 1.6666 -3.099 3.6458 -4.1406 5.9374 c-0.9375 2.2396 -1.4063 4.6875 -1.4063 7.3438 s0.46875 5.1302 1.4063 7.4219 c1.0416 2.3959 2.4219 4.375 4.1406 5.9375 c1.5625 1.5625 3.6459 2.8906 6.25 3.9844 c2.5 0.9375 5.1823 1.4063 8.0469 1.4063 l11.484 0 l0 -11.25 z M211.0938 1.4059999999999988 l27.813 0 l0 5.9375 l-27.813 0 l0 -5.9375 z M211.0938 32.6562 l27.734 0 l0 5.9375 l-27.734 0 l0 -5.9375 z M211.0938 16.875 l25.078 0 l0 5.8594 l-25.078 0 l0 -5.8594 z M269.281 7.5 l11.797 0 l0 -6.0938 l-30.156 0 l0 6.0938 l18.359 0 z M262.719 13.594000000000001 l6.5625 0 l0 25 l-6.5625 0 l0 -25 z M322.781 38.5937 l-10.078 -14.063 c1.3541 -0.41664 2.552 -0.91141 3.5937 -1.4843 c1.1459 -0.72914 2.0834 -1.5364 2.8125 -2.4218 c0.83336 -0.98961 1.4323 -2.0573 1.797 -3.2032 c0.46875 -1.25 0.70313 -2.6563 0.70313 -4.2188 c0 -1.8229 -0.3125 -3.4635 -0.9375 -4.9219 c-0.625 -1.4063 -1.5365 -2.6302 -2.7344 -3.6719 c-1.1459 -0.98961 -2.6042 -1.7709 -4.3751 -2.3438 c-1.8229 -0.57289 -3.75 -0.85938 -5.7813 -0.85938 l-16.563 0 l0 5.9375 l16.016 0 c2.4479 0 4.3489 0.52086 5.703 1.5625 s2.0313 2.6041 2.0313 4.6875 c0 1.9271 -0.67711 3.4375 -2.0313 4.5313 c-1.3541 1.1459 -3.2291 1.7188 -5.625 1.7188 l-16.094 0 l0 18.75 l6.4844 0 l0 -12.969 l8.2031 0 l9.1406 12.969 l7.7344 0 l0 0 z M345.344 32.6562 c-0.78125 -0.15625 -1.5105 -0.3907 -2.1876 -0.7032 c-1.4584 -0.67711 -2.7344 -1.6146 -3.8281 -2.8125 c-1.0416 -1.0938 -1.875 -2.4479 -2.5 -4.0625 c-0.57289 -1.6146 -0.85938 -3.2552 -0.85938 -4.9219 l0 -0.15625 l0 -0.23438 c0 -1.7188 0.28648 -3.3854 0.85938 -5 c0.67711 -1.6666 1.5105 -2.9948 2.5001 -3.9844 c1.0416 -1.1979 2.2916 -2.1094 3.75 -2.7344 c0.88539 -0.41664 1.6406 -0.67703 2.2656 -0.78117 l0 -5.8594 c-1.8229 0.26039 -3.4375 0.70313 -4.8438 1.3281 c-2.2916 0.98961 -4.2448 2.3177 -5.8594 3.9844 s-2.8906 3.6458 -3.8281 5.9374 s-1.4063 4.6875 -1.4063 7.1875 l0 0.15625 l0 0.23438 c0 2.5521 0.46875 4.948 1.4063 7.1876 c0.83336 2.2396 2.0834 4.1927 3.75 5.8594 c1.6666 1.7188 3.6198 3.0469 5.8594 3.9844 c1.4063 0.625 3.0469 1.0677 4.9219 1.3281 l0 -5.9375 z M366.594 20 l0.000076294 -0.23438 c0 -2.5521 -0.46875 -4.948 -1.4063 -7.1876 c-0.9375 -2.2916 -2.2135 -4.2708 -3.8281 -5.9374 c-1.5625 -1.6666 -3.4896 -2.9688 -5.7813 -3.9063 c-1.3021 -0.625 -2.8906 -1.0677 -4.7656 -1.3281 l0 5.9375 l0.9375 0.3125 c0.46875 0.15625 0.83336 0.28648 1.0938 0.39063 c1.4584 0.67711 2.7344 1.6146 3.8281 2.8125 c1.0416 1.0938 1.875 2.4479 2.5 4.0625 c0.57289 1.6146 0.85938 3.2552 0.85938 4.9219 l0 0.15625 l0 0.23438 c0 1.7188 -0.28648 3.3854 -0.85938 5 c-0.67711 1.6666 -1.5105 2.9948 -2.5001 3.9844 c-1.0416 1.1979 -2.2916 2.1094 -3.75 2.7344 c-0.67711 0.3125 -1.3802 0.54688 -2.1094 0.70313 l0 5.9375 c1.5625 -0.20836 3.125 -0.65109 4.6875 -1.3282 c2.1354 -0.88539 4.0885 -2.2135 5.8594 -3.9844 c1.7188 -1.8229 2.9948 -3.802 3.8281 -5.9374 c0.9375 -2.2916 1.4063 -4.6875 1.4063 -7.1875 l0 -0.15625 z M372.8281 38.5937 l6.4844 0 l0 -19.922 l-6.4844 -9.1406 l0 29.063 z M398.766 1.4059999999999988 l0 25.703 l-18.359 -25.703 l-7.0313 0 l26.406 37.188 l5.3906 0 l0 -37.188 l-6.4063 0 z"/></g>
			</g>
		</svg>
	