<?xml version="1.0" encoding="UTF-8"?><svg id="Layer_1" xmlns="http://www.w3.org/2000/svg" xmlns:xlink="http://www.w3.org/1999/xlink" viewBox="0 0 194 99"><defs><style>.cls-1{fill:url(#Turquoise_4-2);}.cls-2{fill:url(#Turquoise_4);}.cls-3{fill:#7c7d80;}.cls-4{fill:url(#Turquoise_4-3);}</style><linearGradient id="Turquoise_4" x1="1.83" y1="10.5" x2="89.7" y2="10.5" gradientUnits="userSpaceOnUse"><stop offset=".01" stop-color="#4aaec9"/><stop offset=".5" stop-color="#0097b8"/><stop offset=".99" stop-color="#007b97"/></linearGradient><linearGradient id="Turquoise_4-2" x1="1.83" y1="88.1" x2="90" y2="88.1" xlink:href="#Turquoise_4"/><linearGradient id="Turquoise_4-3" y1="49.34" x2="72.77" y2="49.34" xlink:href="#Turquoise_4"/></defs><path class="cls-2" d="m81.7,18.5H9.83c-4.42,0-8-3.58-8-8S5.41,2.5,9.83,2.5h71.87c4.42,0,8,3.58,8,8s-3.58,8-8,8Z"/><path class="cls-1" d="m9.83,96.19c-4.41,0-7.99-3.57-8-7.98-.01-4.42,3.56-8.01,7.98-8.02l72.17-.19h.02c4.41,0,7.99,3.57,8,7.98.01,4.42-3.56,8.01-7.98,8.02l-72.17.19h-.02Z"/><path class="cls-4" d="m64.77,57.34H9.83c-4.42,0-8-3.58-8-8s3.58-8,8-8h54.94c4.42,0,8,3.58,8,8s-3.58,8-8,8Z"/><path class="cls-3" d="m191.92,89.18c-.57,3.97-4.15,6.82-8.16,6.82h-68.75c-.52,0-1.03-.05-1.52-.14-.49.09-.98.14-1.48.14-1.96,0-3.92-.71-5.46-2.16-3.23-3.01-3.4-8.08-.38-11.3l55.95-59.84c1.49-1.6.36-4.2-1.82-4.2h-48.21c-4.01,0-7.6-2.85-8.16-6.82-.71-4.95,3.11-9.18,7.92-9.18h71.87c3.02,0,5.65,1.67,7,4.14.02,0,.02.03.03.05,1.94,3,1.66,7.05-.89,9.77l-54.99,58.81c-1.68,1.8-.41,4.73,2.05,4.73h47.1c4.81,0,8.62,4.24,7.92,9.18Z"/></svg>