<svg width="497" height="609" viewBox="0 0 497 609" fill="none" xmlns="http://www.w3.org/2000/svg">
<g clip-path="url(#clip0_50_2478)">
<path d="M192.494 512.494C178.906 546.637 169.673 587.225 192.494 603.6C215.314 619.975 252.071 596.458 281.86 572.592C306.248 553.082 368.438 483.228 394.046 448.214C419.654 413.2 446.83 367.734 411.292 346.134C375.755 324.533 317.397 339.166 264.265 401.006C219.669 452.569 206.953 475.912 192.494 512.494Z" fill="#030E77"/>
<path d="M379.587 254.331C344.399 251.195 281.163 239.175 209.74 210.607C155.04 226.807 96.6825 246.143 63.584 263.912C63.584 263.912 -8.1875 298.055 0.696834 322.965C9.40696 347.876 62.0161 355.366 130.652 353.45C199.462 351.534 333.25 321.049 363.387 312.687C452.23 287.777 515.988 238.304 491.948 201.723C490.38 199.284 488.638 197.193 486.548 195.103C466.863 234.646 422.267 257.989 379.587 254.331Z" fill="#D2FB3F"/>
<path d="M486.548 195.103C496.652 174.722 500.31 149.811 493.342 122.288C472.96 41.111 410.596 23.6911 370.529 14.1101C339.173 6.61959 289.873 -3.13556 213.572 1.04522C144.937 4.8776 37.4536 33.272 32.576 74.2088C27.5241 117.584 88.495 155.734 174.028 195.451C186.048 201.026 197.894 206.078 209.566 210.781C239.354 202.071 268.098 194.232 291.093 188.135C360.774 169.496 452.23 158.695 486.548 195.103Z" fill="#06B564"/>
<path d="M209.74 210.607C239.529 201.897 268.272 194.058 291.267 187.961C360.774 169.496 452.23 158.695 486.722 195.103M486.548 195.103C466.863 234.646 422.093 257.989 379.588 254.331C344.399 251.195 281.163 239.175 209.74 210.607" fill="url(#paint0_linear_50_2478)"/>
</g>
<defs>
<linearGradient id="paint0_linear_50_2478" x1="209.736" y1="212.812" x2="486.61" y2="212.812" gradientUnits="userSpaceOnUse">
<stop stop-color="#D2FB3F"/>
<stop offset="0.1799" stop-color="#CFFA40"/>
<stop offset="0.3231" stop-color="#C5F641"/>
<stop offset="0.4537" stop-color="#B4F144"/>
<stop offset="0.5768" stop-color="#9CE949"/>
<stop offset="0.6948" stop-color="#7EDE4E"/>
<stop offset="0.8087" stop-color="#58D155"/>
<stop offset="0.9173" stop-color="#2DC25D"/>
<stop offset="1" stop-color="#06B564"/>
</linearGradient>
<clipPath id="clip0_50_2478">
<rect width="497" height="609" fill="white"/>
</clipPath>
</defs>
</svg>
